# xmcd CD database file
#
# Track frame offsets:
#	150
#	23045
#	44808
#	62875
#	87443
#	109517
#	132588
#	151795
#	177465
#	198091
#	221747
#
# Disc length: 3264 seconds
#
# Revision: 2
# Processed by: cddbd v1.5.2PL0 Copyright (c) Steve Scherf et al.
# Submitted via: CDex 1.70beta3
#
DISCID=9c0cbe0b
DTITLE=樹里からん - TORCH Ⅱ
DYEAR=2011
DGENRE=blues
TTITLE0=Make-up Shadow
TTITLE1=KISS OF LIFE
TTITLE2=夢で逢えたら
TTITLE3=恋の予感
TTITLE4=わがままジュリエット
TTITLE5=君がいるだけで
TTITLE6=別れのサンバ
TTITLE7=言葉にできない
TTITLE8=あまく危険な香り
TTITLE9=LA・LA・LA LOVE SONG
TTITLE10=秋桜
EXTD=YEAR: 2011
EXTT0=
EXTT1=
EXTT2=
EXTT3=
EXTT4=
EXTT5=
EXTT6=
EXTT7=
EXTT8=
EXTT9=
EXTT10=
PLAYORDER=
